<mxfile host="app.diagrams.net" modified="2022-11-07T06:17:09.385Z" agent="5.0 (Windows NT 10.0; Win64; x64) AppleWebKit/537.36 (KHTML, like Gecko) Chrome/104.0.0.0 Safari/537.36" etag="fIiadHcfD2-6QDpUo2OQ" version="20.5.1" type="github">
  <diagram id="7I6s-KUDsDrvL7AvKa_N" name="第 1 页">
    <mxGraphModel dx="1350" dy="746" grid="1" gridSize="10" guides="1" tooltips="1" connect="1" arrows="1" fold="1" page="1" pageScale="1" pageWidth="827" pageHeight="1169" math="0" shadow="0">
      <root>
        <mxCell id="0" />
        <mxCell id="1" parent="0" />
        <mxCell id="Tu1LMPSPsvWpRj28qPW7-2" value="&lt;b&gt;*_snapshot&lt;/b&gt;" style="rounded=1;whiteSpace=wrap;html=1;" vertex="1" parent="1">
          <mxGeometry x="50" y="270" width="120" height="60" as="geometry" />
        </mxCell>
      </root>
    </mxGraphModel>
  </diagram>
</mxfile>
